<?xml version="1.0" encoding="UTF-8" standalone="no"?>
<!-- Created with Inkscape (http://www.inkscape.org/) -->

<svg
   xmlns:dc="http://purl.org/dc/elements/1.1/"
   xmlns:cc="http://creativecommons.org/ns#"
   xmlns:rdf="http://www.w3.org/1999/02/22-rdf-syntax-ns#"
   xmlns:svg="http://www.w3.org/2000/svg"
   xmlns="http://www.w3.org/2000/svg"
   xmlns:sodipodi="http://sodipodi.sourceforge.net/DTD/sodipodi-0.dtd"
   xmlns:inkscape="http://www.inkscape.org/namespaces/inkscape"
   width="744.09448819"
   height="1052.3622047"
   id="svg2"
   version="1.1"
   inkscape:version="0.48.5 r10040"
   sodipodi:docname="turtle.svg"
   inkscape:export-filename="/home/ayoung/devel/bobt/turtle-up.png"
   inkscape:export-xdpi="90"
   inkscape:export-ydpi="90">
  <defs
     id="defs4" />
  <sodipodi:namedview
     id="base"
     pagecolor="#ffffff"
     bordercolor="#666666"
     borderopacity="1.0"
     inkscape:pageopacity="0.0"
     inkscape:pageshadow="2"
     inkscape:zoom="0.98994949"
     inkscape:cx="156.46042"
     inkscape:cy="614.48025"
     inkscape:document-units="px"
     inkscape:current-layer="g3808"
     showgrid="false"
     inkscape:window-width="1920"
     inkscape:window-height="1014"
     inkscape:window-x="0"
     inkscape:window-y="27"
     inkscape:window-maximized="1" />
  <metadata
     id="metadata7">
    <rdf:RDF>
      <cc:Work
         rdf:about="">
        <dc:format>image/svg+xml</dc:format>
        <dc:type
           rdf:resource="http://purl.org/dc/dcmitype/StillImage" />
        <dc:title></dc:title>
      </cc:Work>
    </rdf:RDF>
  </metadata>
  <g
     inkscape:label="Layer 1"
     inkscape:groupmode="layer"
     id="layer1">
    <g
       id="g3808"
       inkscape:export-filename="/home/ayoung/devel/bobt/turtle-left.png"
       inkscape:export-xdpi="90"
       inkscape:export-ydpi="90"
       transform="matrix(1.3412969,0,0,1,-141.08349,-126.26907)">
      <g
         id="g3819"
         transform="matrix(0.03596748,-1.340429,0.7450647,0.03596747,51.444458,773.70647)"
         inkscape:export-filename="/home/ayoung/devel/bobt/turtle-left.png"
         inkscape:export-xdpi="90"
         inkscape:export-ydpi="90">
        <path
           sodipodi:type="arc"
           style="fill:#ffffff;fill-opacity:1;stroke:#0d0808;stroke-width:11.39999962;stroke-miterlimit:4;stroke-opacity:1;stroke-dasharray:none"
           id="path2985"
           sodipodi:cx="326.78436"
           sodipodi:cy="376.57013"
           sodipodi:rx="32.829956"
           sodipodi:ry="43.436558"
           d="m 359.61432,376.57013 c 0,23.98935 -14.69847,43.43656 -32.82996,43.43656 -18.13148,0 -32.82995,-19.44721 -32.82995,-43.43656 0,-23.98935 14.69847,-43.43656 32.82995,-43.43656 17.7256,0 32.2505,18.61667 32.8134,42.05716"
           sodipodi:start="0"
           sodipodi:end="6.2514234"
           sodipodi:open="true" />
        <path
           sodipodi:type="arc"
           style="fill:#ffffff;fill-opacity:1;stroke:#0d0808;stroke-width:11.39999962;stroke-miterlimit:4;stroke-opacity:1;stroke-dasharray:none"
           id="path2987"
           sodipodi:cx="304.561"
           sodipodi:cy="421.52191"
           sodipodi:rx="9.5964489"
           sodipodi:ry="16.667517"
           d="m 314.15745,421.52191 c 0,9.20522 -4.29647,16.66752 -9.59645,16.66752 -5.29997,0 -9.59644,-7.4623 -9.59644,-16.66752 0,-9.20521 4.29647,-16.66752 9.59644,-16.66752 5.18133,0 9.42707,7.14361 9.59161,16.13822"
           sodipodi:start="0"
           sodipodi:end="6.2514234"
           sodipodi:open="true"
           transform="matrix(0.69705644,0,0,1,87.171977,4)" />
        <path
           sodipodi:type="arc"
           style="fill:#ffffff;fill-opacity:1;stroke:#0d0808;stroke-width:11.39999962;stroke-miterlimit:4;stroke-opacity:1;stroke-dasharray:none"
           id="path2989"
           sodipodi:cx="354.05847"
           sodipodi:cy="428.59299"
           sodipodi:rx="6.5659914"
           sodipodi:ry="14.647212"
           d="m 360.62446,428.59299 c 0,8.08943 -2.93969,14.64721 -6.56599,14.64721 -3.6263,0 -6.56599,-6.55778 -6.56599,-14.64721 0,-8.08943 2.93969,-14.64721 6.56599,-14.64721 3.54512,0 6.4501,6.27771 6.56268,14.18206"
           sodipodi:start="0"
           sodipodi:end="6.2514234"
           sodipodi:open="true"
           transform="translate(2.9898475,-5.0507627)" />
        <path
           sodipodi:type="arc"
           style="fill:#ffffff;fill-opacity:1;stroke:#0d0808;stroke-width:11.39999962;stroke-miterlimit:4;stroke-opacity:1;stroke-dasharray:none"
           id="path2991"
           sodipodi:cx="365.67523"
           sodipodi:cy="346.77063"
           sodipodi:rx="9.0913725"
           sodipodi:ry="15.657365"
           d="m 374.7666,346.77063 c 0,8.64732 -4.07034,15.65736 -9.09137,15.65736 -5.02102,0 -9.09137,-7.01004 -9.09137,-15.65736 0,-8.64732 4.07035,-15.65736 9.09137,-15.65736 4.90863,0 8.93091,6.71065 9.08679,15.16014"
           sodipodi:start="0"
           sodipodi:end="6.2514234"
           sodipodi:open="true"
           transform="matrix(1,0,0,0.33841471,4.0406102,232.70596)" />
        <path
           sodipodi:type="arc"
           style="fill:#ffffff;fill-opacity:1;stroke:#0d0808;stroke-width:11.39999962;stroke-miterlimit:4;stroke-opacity:1;stroke-dasharray:none"
           id="path2993"
           sodipodi:cx="284.35794"
           sodipodi:cy="344.24524"
           sodipodi:rx="10.606602"
           sodipodi:ry="12.121831"
           d="m 294.96454,344.24524 c 0,6.6947 -4.74873,12.12183 -10.6066,12.12183 -5.85786,0 -10.6066,-5.42713 -10.6066,-12.12183 0,-6.6947 4.74874,-12.12183 10.6066,-12.12183 5.72673,0 10.41939,5.19535 10.60125,11.73688"
           sodipodi:start="0"
           sodipodi:end="6.2514234"
           sodipodi:open="true"
           transform="matrix(1,0,0,0.65177967,0,124.09426)" />
        <path
           sodipodi:type="arc"
           style="fill:#ffffff;fill-opacity:1;stroke:#0d0808;stroke-width:11.39999962;stroke-miterlimit:4;stroke-opacity:1;stroke-dasharray:none"
           id="path2995"
           sodipodi:cx="327.79449"
           sodipodi:cy="309.90005"
           sodipodi:rx="12.626906"
           sodipodi:ry="26.263966"
           d="m 340.4214,309.90005 c 0,14.50519 -5.65326,26.26397 -12.62691,26.26397 -6.97364,0 -12.6269,-11.75878 -12.6269,-26.26397 0,-14.50518 5.65326,-26.26396 12.6269,-26.26396 6.81754,0 12.40404,11.25659 12.62054,25.42991"
           sodipodi:start="0"
           sodipodi:end="6.2514234"
           sodipodi:open="true" />
        <path
           sodipodi:type="arc"
           style="fill:#0000ff;fill-opacity:1;stroke:#0d0808;stroke-width:0;stroke-miterlimit:4;stroke-opacity:1;stroke-dasharray:none"
           id="path3767"
           sodipodi:cx="527.29962"
           sodipodi:cy="280.60565"
           sodipodi:rx="9.0913715"
           sodipodi:ry="10.101525"
           d="m 536.39099,280.60565 c 0,5.57892 -4.07034,10.10153 -9.09137,10.10153 -5.02102,0 -9.09137,-4.52261 -9.09137,-10.10153 0,-5.57892 4.07035,-10.10152 9.09137,-10.10152 4.90863,0 8.93091,4.32945 9.08679,9.78073"
           sodipodi:start="0"
           sodipodi:end="6.2514234"
           sodipodi:open="true"
           transform="translate(-199.00005,-22.223356)" />
        <path
           sodipodi:type="arc"
           style="fill:#a453e1;fill-opacity:1;stroke:#0d0808;stroke-width:0;stroke-miterlimit:4;stroke-opacity:1;stroke-dasharray:none"
           id="path3769"
           sodipodi:cx="400.52548"
           sodipodi:cy="300.30362"
           sodipodi:rx="8.586297"
           sodipodi:ry="10.606602"
           d="m 409.11178,300.30362 c 0,5.85786 -3.84422,10.6066 -8.5863,10.6066 -4.74208,0 -8.58629,-4.74874 -8.58629,-10.6066 0,-5.85786 3.84421,-10.6066 8.58629,-10.6066 4.63593,0 8.43475,4.54593 8.58197,10.26977"
           sodipodi:start="0"
           sodipodi:end="6.2514234"
           sodipodi:open="true"
           transform="translate(-138.3909,-3.0304576)" />
        <path
           sodipodi:type="arc"
           style="fill:#f0e41a;fill-opacity:1;stroke:#0d0808;stroke-width:0;stroke-miterlimit:4;stroke-opacity:1;stroke-dasharray:none"
           id="path3769-3"
           sodipodi:cx="400.52548"
           sodipodi:cy="300.30362"
           sodipodi:rx="8.586297"
           sodipodi:ry="10.606602"
           d="m 409.11178,300.30362 c 0,5.85786 -3.84422,10.6066 -8.5863,10.6066 -4.74208,0 -8.58629,-4.74874 -8.58629,-10.6066 0,-5.85786 3.84421,-10.6066 8.58629,-10.6066 4.63593,0 8.43475,4.54593 8.58197,10.26977"
           sodipodi:start="0"
           sodipodi:end="6.2514234"
           sodipodi:open="true"
           transform="translate(-7.5761411,-8.5863032)" />
      </g>
    </g>
  </g>
</svg>
